<?xml version="1.0" encoding="utf-8"?>
<!-- Generator: Adobe Illustrator 27.7.0, SVG Export Plug-In . SVG Version: 6.00 Build 0)  -->
<svg version="1.1" id="Layer_1" xmlns="http://www.w3.org/2000/svg" xmlns:xlink="http://www.w3.org/1999/xlink" x="0px" y="0px"
	 viewBox="0 0 595.3 360" style="enable-background:new 0 0 595.3 360;" xml:space="preserve">
<style type="text/css">
	.st0{enable-background:new    ;}
	.st1{fill:#364339;}
	.st2{fill:#38453B;}
</style>
<g class="st0">
	<path class="st1" d="M84.3,332.2c0,2-0.2,3.7-0.7,5.3s-1.2,2.9-2.1,4c-1,1.1-2.1,2-3.6,2.5c-1.4,0.6-3.1,0.9-5,0.9
		c-0.9,0-1.7-0.1-2.5-0.2c-0.8-0.1-1.7-0.3-2.6-0.5l0.3-3.8c0-0.4,0.2-0.6,0.4-0.9s0.6-0.3,1-0.3c0.3,0,0.6,0.1,1.1,0.2
		c0.4,0.1,1,0.2,1.7,0.2c0.9,0,1.7-0.1,2.4-0.4c0.7-0.3,1.3-0.7,1.8-1.3c0.5-0.6,0.8-1.3,1.1-2.2c0.2-0.9,0.4-2,0.4-3.3v-22.5h6.5
		V332.2z"/>
	<path class="st1" d="M136.6,344.5h-5c-0.6,0-1-0.1-1.4-0.4c-0.4-0.3-0.6-0.6-0.8-1l-2.6-7.1h-14.4l-2.6,7.1c-0.1,0.4-0.4,0.7-0.8,1
		c-0.4,0.3-0.8,0.5-1.4,0.5h-5l13.6-34.7h6.6L136.6,344.5z M114.1,331.4h11.1l-4.2-11.5c-0.2-0.5-0.4-1.1-0.6-1.8s-0.5-1.5-0.7-2.3
		c-0.2,0.8-0.4,1.6-0.7,2.3c-0.2,0.7-0.4,1.3-0.6,1.8L114.1,331.4z"/>
	<path class="st1" d="M174.3,331.7c0.2,0.6,0.5,1.1,0.7,1.7c0.2-0.6,0.5-1.1,0.7-1.7c0.2-0.6,0.5-1.1,0.8-1.6l10.3-19.2
		c0.1-0.2,0.3-0.4,0.4-0.6c0.1-0.1,0.3-0.2,0.5-0.3c0.2-0.1,0.4-0.1,0.6-0.1c0.2,0,0.5,0,0.7,0h4.9v34.7h-5.7v-22.4
		c0-0.4,0-0.9,0-1.4c0-0.5,0.1-1,0.1-1.5l-10.5,19.7c-0.2,0.4-0.6,0.8-0.9,1s-0.8,0.4-1.3,0.4h-0.9c-0.5,0-1-0.1-1.3-0.4
		c-0.4-0.2-0.7-0.6-0.9-1l-10.6-19.8c0.1,0.5,0.1,1,0.1,1.5c0,0.5,0,1,0,1.4v22.4h-5.7v-34.7h4.9c0.3,0,0.5,0,0.7,0
		c0.2,0,0.4,0.1,0.6,0.1c0.2,0.1,0.3,0.2,0.5,0.3c0.1,0.1,0.3,0.3,0.4,0.6l10.4,19.3C173.8,330.6,174.1,331.1,174.3,331.7z"/>
	<path class="st1" d="M224,344.5h-6.5v-34.7h6.5V344.5z"/>
	<path class="st1" d="M269.7,309.8v5.1h-15.4v9.6h12.1v5h-12.1v9.8h15.4v5.2h-21.9v-34.7H269.7z"/>
	<path class="st1" d="M316.5,344.5v-34.7h12c2.3,0,4.2,0.2,5.8,0.6c1.6,0.4,2.9,1,4,1.8s1.8,1.8,2.3,2.9c0.5,1.1,0.7,2.4,0.7,3.8
		c0,0.8-0.1,1.6-0.4,2.3s-0.6,1.4-1.1,2.1c-0.5,0.6-1.1,1.2-1.9,1.8c-0.8,0.5-1.7,1-2.8,1.3c4.8,1.1,7.2,3.6,7.2,7.7
		c0,1.5-0.3,2.8-0.8,4.1c-0.6,1.2-1.4,2.3-2.4,3.2c-1.1,0.9-2.4,1.6-4,2.1c-1.6,0.5-3.4,0.8-5.4,0.8H316.5z M323,324.8h5.2
		c2.2,0,3.9-0.4,5-1.2c1.1-0.8,1.7-2.1,1.7-3.8c0-1.8-0.5-3.1-1.5-3.9c-1-0.8-2.6-1.2-4.8-1.2H323V324.8z M323,329.3v10.2h6.6
		c1.2,0,2.2-0.1,3-0.4s1.5-0.7,1.9-1.2c0.5-0.5,0.8-1,1.1-1.7c0.2-0.6,0.3-1.3,0.3-2c0-0.8-0.1-1.4-0.4-2c-0.2-0.6-0.6-1.1-1.1-1.5
		c-0.5-0.4-1.2-0.7-2-1c-0.8-0.2-1.8-0.3-2.9-0.3H323z"/>
	<path class="st1" d="M379.2,331v13.5h-6.5V331l-12.6-21.2h5.7c0.6,0,1,0.1,1.3,0.4s0.6,0.6,0.8,1l6.4,11.6c0.4,0.7,0.7,1.3,1,2
		s0.5,1.2,0.7,1.8c0.2-0.6,0.4-1.2,0.7-1.8c0.3-0.6,0.6-1.3,0.9-1.9l6.3-11.6c0.2-0.4,0.4-0.7,0.8-1s0.8-0.5,1.3-0.5h5.7L379.2,331z
		"/>
	<path class="st1" d="M417.9,330.9v13.6h-6.5v-34.7H422c2.4,0,4.4,0.2,6.1,0.7c1.7,0.5,3.1,1.2,4.2,2.1s1.9,1.9,2.4,3.2
		c0.5,1.2,0.8,2.6,0.8,4c0,1.2-0.2,2.3-0.5,3.3c-0.3,1-0.8,2-1.5,2.8c-0.6,0.8-1.4,1.6-2.4,2.2s-2,1.2-3.3,1.5
		c0.8,0.5,1.5,1.1,2.1,2l8.7,12.8h-5.8c-0.6,0-1-0.1-1.4-0.3c-0.4-0.2-0.7-0.5-1-1l-7.3-11.1c-0.3-0.4-0.6-0.7-0.9-0.9
		s-0.8-0.3-1.5-0.3H417.9z M417.9,326.3h4c1.2,0,2.3-0.2,3.2-0.5c0.9-0.3,1.6-0.7,2.2-1.3s1-1.2,1.3-1.9c0.3-0.7,0.4-1.5,0.4-2.4
		c0-1.8-0.6-3.1-1.7-4.1s-2.9-1.4-5.3-1.4h-4.1V326.3z"/>
	<path class="st1" d="M462.7,309.8c0.2,0,0.4,0.1,0.5,0.1c0.2,0.1,0.3,0.2,0.4,0.3c0.1,0.1,0.3,0.3,0.5,0.5l18.2,23.2
		c-0.1-0.6-0.1-1.1-0.1-1.6c0-0.5,0-1,0-1.5v-21.1h5.7v34.7h-3.3c-0.5,0-0.9-0.1-1.3-0.2c-0.3-0.2-0.7-0.4-1-0.9l-18.1-23.1
		c0,0.5,0.1,1,0.1,1.5c0,0.5,0,1,0,1.4v21.3h-5.7v-34.7h3.4C462.3,309.8,462.5,309.8,462.7,309.8z"/>
	<path class="st1" d="M532.8,309.8v5.1h-15.4v9.6h12.1v5h-12.1v9.8h15.4v5.2h-21.9v-34.7H532.8z"/>
</g>
<g>
	<path class="st2" d="M45.5,190c4.2,0,7.4-3.2,7.3-7.4c0-4.2-3.3-7.3-7.5-7.2c-4.1,0.1-7.3,3.4-7.2,7.5
		C38.3,186.9,41.5,190,45.5,190z M45.5,181.1c1,0,1.6,0.6,1.5,1.6c0,1-0.7,1.5-1.7,1.5c-0.9-0.2-1.4-0.8-1.3-1.7
		C44.1,181.6,44.7,181.1,45.5,181.1z"/>
	<path class="st2" d="M152.5,102.6v3.6H89.1v6.5H71.6V95.4c0-5.6-4.6-10.2-10.2-10.2H29.2c-5.6,0-10.2,4.6-10.2,10.2v101.8
		c0,5.6,4.6,10.2,10.2,10.2h32.1c5.6,0,10.2-4.6,10.2-10.2v-17.4H89v6.4h63.4v3.4H281v-87C281,102.6,152.5,102.6,152.5,102.6z
		 M64.6,106h-31v6.8h31v84.4c0,1.8-1.4,3.2-3.2,3.2H29.2c-1.8,0-3.2-1.4-3.2-3.2V95.4c0-1.8,1.4-3.2,3.2-3.2h32.1
		c1.8,0,3.2,1.4,3.2,3.2L64.6,106L64.6,106z M89.1,172.2H71.6v-51.9h17.5V172.2z M151.9,151.6h-7V162h7v7.1h-7v3.7h7v6.3H96.1v-66
		h48.8v34.7h7V151.6z M260,109.6h-6.9v34.9h6.9v7.1h-6.9v3.7h6.9v27.2h-69.3v-73H184h-1h-6.8V141h6.8v3.4h-6.6v10.9h6.6v6.8h-6.6
		v7.1h6.6v13.5h-23.6v-73L260,109.6L260,109.6z M274.1,182.6h-6.6v-73h6.6V182.6z"/>
	<rect x="197.3" y="109.6" class="st2" width="7.2" height="72.9"/>
</g>
<g>
	<path class="st2" d="M517.4,161.4c-2.2-1.8-5.1-3.2-8.5-4.2c-3.5-1-7.7-1.5-12.6-1.5H468v44.1h28.4c5.2,0,9.6-0.6,13.1-1.9
		s6.3-2.9,8.4-5c2.1-2.1,3.6-4.5,4.6-7.3c0.9-2.8,1.4-5.7,1.4-8.8c0-3.3-0.5-6.2-1.6-8.8C521.2,165.4,519.6,163.2,517.4,161.4z"/>
	<path class="st2" d="M511.9,131.2c4.9-3.5,7.4-9,7.4-16.5c0-7.8-2.2-13.4-6.7-16.7c-4.4-3.3-11.4-5-20.8-5H468v43.5h22.4
		C499.8,136.4,507,134.6,511.9,131.2z"/>
	<path class="st2" d="M318.5,17v257.8h258.1V17H318.5z M409.6,168.2c0,8.5-1,16.1-3.1,22.9c-2.1,6.8-5.2,12.6-9.3,17.4
		c-4.1,4.8-9.3,8.5-15.4,11c-6.2,2.6-13.3,3.8-21.5,3.8c-3.7,0-7.4-0.2-11-0.7s-7.4-1.2-11.3-2.1l1.5-16.6c0.1-1.5,0.7-2.8,1.7-3.7
		s2.5-1.4,4.4-1.4c1.2,0,2.7,0.2,4.6,0.7s4.3,0.7,7.2,0.7c4,0,7.5-0.6,10.5-1.7c3-1.1,5.6-3,7.6-5.5s3.6-5.7,4.6-9.7
		s1.6-8.8,1.6-14.5V71.3h28v96.9H409.6z M547.8,195.1c-2.4,5.4-6,10.1-10.6,14s-10.4,7-17.2,9.2s-14.6,3.3-23.3,3.3H440V71.3h51.9
		c9.8,0,18.3,0.9,25.2,2.8c6.9,1.9,12.7,4.5,17.2,8s7.7,7.7,9.8,12.6s3.1,10.5,3.1,16.6c0,3.5-0.5,6.9-1.6,10.1s-2.7,6.2-4.8,9
		c-2.2,2.8-5,5.4-8.3,7.6c-3.4,2.3-7.4,4.2-12,5.8c20.7,4.6,31,15.8,31,33.5C551.5,183.8,550.2,189.7,547.8,195.1z"/>
</g>
</svg>
